<svg width="106" height="32" viewBox="0 0 106 32" fill="none" xmlns="http://www.w3.org/2000/svg">
<g id="LOGO">
<path id="Vector" d="M106 15.2838V16.7587C106 19.1243 105.685 21.2477 105.055 23.1288C104.424 25.0099 103.535 26.6131 102.387 27.9384C101.238 29.2495 99.8659 30.2542 98.2694 30.9524C96.6869 31.6507 94.9293 31.9999 92.9967 31.9999C91.0781 31.9999 89.3205 31.6507 87.724 30.9524C86.1415 30.2542 84.7691 29.2495 83.6067 27.9384C82.4443 26.6131 81.541 25.0099 80.8968 23.1288C80.2666 21.2477 79.9515 19.1243 79.9515 16.7587V15.2838C79.9515 12.9039 80.2666 10.7805 80.8968 8.91369C81.527 7.0326 82.4163 5.42939 83.5647 4.10407C84.7271 2.77876 86.0995 1.76695 87.682 1.06867C89.2785 0.370383 91.0361 0.0212402 92.9547 0.0212402C94.8873 0.0212402 96.6449 0.370383 98.2274 1.06867C99.8239 1.76695 101.196 2.77876 102.345 4.10407C103.507 5.42939 104.403 7.0326 105.034 8.91369C105.678 10.7805 106 12.9039 106 15.2838ZM99.6349 16.7587V15.241C99.6349 13.5879 99.4878 12.1344 99.1937 10.8803C98.8996 9.62623 98.4655 8.57167 97.8913 7.71663C97.3171 6.86159 96.6169 6.2203 95.7906 5.79278C94.9644 5.35101 94.0191 5.13012 92.9547 5.13012C91.8904 5.13012 90.9451 5.35101 90.1188 5.79278C89.3065 6.2203 88.6133 6.86159 88.0391 7.71663C87.479 8.57167 87.0518 9.62623 86.7577 10.8803C86.4636 12.1344 86.3166 13.5879 86.3166 15.241V16.7587C86.3166 18.3975 86.4636 19.8511 86.7577 21.1194C87.0518 22.3735 87.486 23.4352 88.0601 24.3045C88.6343 25.1595 89.3345 25.8079 90.1608 26.2497C90.9871 26.6915 91.9324 26.9124 92.9967 26.9124C94.0611 26.9124 95.0064 26.6915 95.8326 26.2497C96.6589 25.8079 97.3521 25.1595 97.9123 24.3045C98.4725 23.4352 98.8996 22.3735 99.1937 21.1194C99.4878 19.8511 99.6349 18.3975 99.6349 16.7587Z" fill="#252525"/>
<path id="Vector_2" d="M75.7922 15.3053V27.6393C75.316 28.2236 74.5808 28.8577 73.5865 29.5417C72.5922 30.2115 71.3108 30.7887 69.7423 31.2732C68.1738 31.7577 66.2761 32 64.0494 32C62.0748 32 60.2752 31.6722 58.6507 31.0167C57.0262 30.3469 55.6257 29.3707 54.4494 28.0882C53.287 26.8056 52.3907 25.238 51.7605 23.3854C51.1303 21.5186 50.8152 19.3881 50.8152 16.994V15.0488C50.8152 12.6546 51.1163 10.5242 51.7185 8.65731C52.3347 6.79047 53.21 5.21576 54.3443 3.9332C55.4787 2.65063 56.8301 1.67446 58.3986 1.00468C59.9671 0.334892 61.7107 0 63.6293 0C66.2901 0 68.4748 0.441772 70.1834 1.32532C71.8919 2.19461 73.1944 3.40592 74.0907 4.95925C75.0009 6.49833 75.5611 8.26542 75.7712 10.2605H69.6582C69.5042 9.20597 69.2101 8.2868 68.7759 7.50301C68.3418 6.71922 67.7186 6.10644 66.9063 5.66466C66.1081 5.22289 65.0718 5.002 63.7973 5.002C62.747 5.002 61.8087 5.22289 60.9824 5.66466C60.1702 6.09218 59.484 6.72634 58.9238 7.56713C58.3636 8.40793 57.9365 9.44823 57.6424 10.688C57.3483 11.9279 57.2012 13.3672 57.2012 15.006V16.994C57.2012 18.6186 57.3553 20.0579 57.6634 21.312C57.9715 22.5518 58.4266 23.5992 59.0288 24.4542C59.645 25.295 60.4013 25.9292 61.2975 26.3567C62.1938 26.7842 63.2372 26.998 64.4276 26.998C65.4219 26.998 66.2481 26.9125 66.9063 26.7415C67.5786 26.5705 68.1177 26.3638 68.5239 26.1216C68.944 25.8651 69.2661 25.6228 69.4902 25.3948V19.8798H63.7343V15.3053H75.7922Z" fill="#252525"/>
<path id="Vector_3" d="M47.0131 15.2838V16.7587C47.0131 19.1243 46.698 21.2477 46.0678 23.1288C45.4376 25.0099 44.5483 26.6131 43.3999 27.9384C42.2516 29.2495 40.8791 30.2542 39.2826 30.9524C37.7001 31.6507 35.9425 31.9999 34.0099 31.9999C32.0913 31.9999 30.3337 31.6507 28.7372 30.9524C27.1547 30.2542 25.7823 29.2495 24.6199 27.9384C23.4575 26.6131 22.5542 25.0099 21.91 23.1288C21.2798 21.2477 20.9647 19.1243 20.9647 16.7587V15.2838C20.9647 12.9039 21.2798 10.7805 21.91 8.91369C22.5402 7.0326 23.4295 5.42939 24.5779 4.10407C25.7403 2.77876 27.1127 1.76695 28.6952 1.06867C30.2917 0.370383 32.0493 0.0212402 33.9679 0.0212402C35.9005 0.0212402 37.6581 0.370383 39.2406 1.06867C40.8371 1.76695 42.2095 2.77876 43.3579 4.10407C44.5203 5.42939 45.4166 7.0326 46.0468 8.91369C46.691 10.7805 47.0131 12.9039 47.0131 15.2838ZM40.648 16.7587V15.241C40.648 13.5879 40.501 12.1344 40.2069 10.8803C39.9128 9.62623 39.4787 8.57167 38.9045 7.71663C38.3303 6.86159 37.6301 6.2203 36.8038 5.79278C35.9775 5.35101 35.0322 5.13012 33.9679 5.13012C32.9036 5.13012 31.9582 5.35101 31.132 5.79278C30.3197 6.2203 29.6265 6.86159 29.0523 7.71663C28.4921 8.57167 28.065 9.62623 27.7709 10.8803C27.4768 12.1344 27.3298 13.5879 27.3298 15.241V16.7587C27.3298 18.3975 27.4768 19.8511 27.7709 21.1194C28.065 22.3735 28.4991 23.4352 29.0733 24.3045C29.6475 25.1595 30.3477 25.8079 31.174 26.2497C32.0003 26.6915 32.9456 26.9124 34.0099 26.9124C35.0742 26.9124 36.0196 26.6915 36.8458 26.2497C37.6721 25.8079 38.3653 25.1595 38.9255 24.3045C39.4857 23.4352 39.9128 22.3735 40.2069 21.1194C40.501 19.8511 40.648 18.3975 40.648 16.7587Z" fill="#252525"/>
<path id="Vector_4" d="M19.6623 26.5706V31.5726H4.26437V26.5706H19.6623ZM6.30202 0.448975V31.5726H0V0.448975H6.30202Z" fill="#252525"/>
</g>
</svg>
