<svg width="24" height="25" viewBox="0 0 24 25" fill="none" xmlns="http://www.w3.org/2000/svg">
<g id="save_black_24dp 1" clip-path="url(#clip0_54_1126)">
<path id="Vector" d="M17 3.5H5C3.89 3.5 3 4.4 3 5.5V19.5C3 20.6 3.89 21.5 5 21.5H19C20.1 21.5 21 20.6 21 19.5V7.5L17 3.5ZM19 19.5H5V5.5H16.17L19 8.33V19.5ZM12 12.5C10.34 12.5 9 13.84 9 15.5C9 17.16 10.34 18.5 12 18.5C13.66 18.5 15 17.16 15 15.5C15 13.84 13.66 12.5 12 12.5ZM6 6.5H15V10.5H6V6.5Z" fill="#221C64"/>
</g>
<defs>
<clipPath id="clip0_54_1126">
<rect width="24" height="24" fill="white" transform="translate(0 0.5)"/>
</clipPath>
</defs>
</svg>
