<svg width="24" height="25" viewBox="0 0 24 25" fill="none" xmlns="http://www.w3.org/2000/svg">
<g id="quiz_FILL0_wght400_GRAD0_opsz24 1">
<path id="Vector" d="M14 15.5C14.2833 15.5 14.5292 15.3958 14.7375 15.1875C14.9458 14.9792 15.05 14.7333 15.05 14.45C15.05 14.1667 14.9458 13.9208 14.7375 13.7125C14.5292 13.5042 14.2833 13.4 14 13.4C13.7167 13.4 13.4708 13.5042 13.2625 13.7125C13.0542 13.9208 12.95 14.1667 12.95 14.45C12.95 14.7333 13.0542 14.9792 13.2625 15.1875C13.4708 15.3958 13.7167 15.5 14 15.5ZM13.25 12.3H14.75C14.75 11.8167 14.8 11.4625 14.9 11.2375C15 11.0125 15.2333 10.7167 15.6 10.35C16.1 9.85 16.4333 9.44583 16.6 9.1375C16.7667 8.82917 16.85 8.46667 16.85 8.05C16.85 7.3 16.5875 6.6875 16.0625 6.2125C15.5375 5.7375 14.85 5.5 14 5.5C13.3167 5.5 12.7208 5.69167 12.2125 6.075C11.7042 6.45833 11.35 6.96667 11.15 7.6L12.5 8.15C12.65 7.73333 12.8542 7.42083 13.1125 7.2125C13.3708 7.00417 13.6667 6.9 14 6.9C14.4 6.9 14.725 7.0125 14.975 7.2375C15.225 7.4625 15.35 7.76667 15.35 8.15C15.35 8.38333 15.2833 8.60417 15.15 8.8125C15.0167 9.02083 14.7833 9.28333 14.45 9.6C13.9 10.0833 13.5625 10.4625 13.4375 10.7375C13.3125 11.0125 13.25 11.5333 13.25 12.3ZM8 18.5C7.45 18.5 6.97917 18.3042 6.5875 17.9125C6.19583 17.5208 6 17.05 6 16.5V4.5C6 3.95 6.19583 3.47917 6.5875 3.0875C6.97917 2.69583 7.45 2.5 8 2.5H20C20.55 2.5 21.0208 2.69583 21.4125 3.0875C21.8042 3.47917 22 3.95 22 4.5V16.5C22 17.05 21.8042 17.5208 21.4125 17.9125C21.0208 18.3042 20.55 18.5 20 18.5H8ZM8 16.5H20V4.5H8V16.5ZM4 22.5C3.45 22.5 2.97917 22.3042 2.5875 21.9125C2.19583 21.5208 2 21.05 2 20.5V6.5H4V20.5H18V22.5H4Z" fill="#252525"/>
</g>
</svg>
