<svg width="106" height="32" viewBox="0 0 106 32" fill="none" xmlns="http://www.w3.org/2000/svg">
<g id="LOGO">
<path id="Vector" d="M106 15.2838V16.7587C106 19.1244 105.685 21.2477 105.055 23.1288C104.425 25.0099 103.535 26.6131 102.387 27.9384C101.238 29.2495 99.866 30.2542 98.2695 30.9525C96.687 31.6508 94.9295 31.9999 92.9968 31.9999C91.0782 31.9999 89.3207 31.6508 87.7242 30.9525C86.1416 30.2542 84.7692 29.2495 83.6068 27.9384C82.4445 26.6131 81.5412 25.0099 80.897 23.1288C80.2668 21.2477 79.9517 19.1244 79.9517 16.7587V15.2838C79.9517 12.9039 80.2668 10.7806 80.897 8.91372C81.5272 7.03263 82.4165 5.42942 83.5648 4.1041C84.7272 2.77879 86.0996 1.76698 87.6821 1.0687C89.2787 0.370413 91.0362 0.0212708 92.9548 0.0212708C94.8875 0.0212708 96.645 0.370413 98.2275 1.0687C99.824 1.76698 101.196 2.77879 102.345 4.1041C103.507 5.42942 104.404 7.03263 105.034 8.91372C105.678 10.7806 106 12.9039 106 15.2838ZM99.635 16.7587V15.241C99.635 13.588 99.4879 12.1344 99.1938 10.8803C98.8997 9.62626 98.4656 8.5717 97.8914 7.71666C97.3172 6.86162 96.617 6.22034 95.7907 5.79281C94.9645 5.35104 94.0192 5.13016 92.9548 5.13016C91.8905 5.13016 90.9452 5.35104 90.1189 5.79281C89.3067 6.22034 88.6134 6.86162 88.0393 7.71666C87.4791 8.5717 87.0519 9.62626 86.7578 10.8803C86.4637 12.1344 86.3167 13.588 86.3167 15.241V16.7587C86.3167 18.3976 86.4637 19.8512 86.7578 21.1195C87.0519 22.3735 87.4861 23.4352 88.0603 24.3045C88.6344 25.1595 89.3347 25.808 90.1609 26.2497C90.9872 26.6915 91.9325 26.9124 92.9968 26.9124C94.0612 26.9124 95.0065 26.6915 95.8328 26.2497C96.659 25.808 97.3522 25.1595 97.9124 24.3045C98.4726 23.4352 98.8997 22.3735 99.1938 21.1195C99.4879 19.8512 99.635 18.3976 99.635 16.7587Z" fill="white"/>
<path id="Vector_2" d="M75.7922 15.3053V27.6393C75.316 28.2236 74.5808 28.8577 73.5865 29.5417C72.5922 30.2115 71.3108 30.7887 69.7423 31.2732C68.1738 31.7577 66.2761 32 64.0494 32C62.0748 32 60.2752 31.6722 58.6507 31.0167C57.0262 30.3469 55.6257 29.3707 54.4494 28.0882C53.287 26.8056 52.3907 25.238 51.7605 23.3854C51.1303 21.5186 50.8152 19.3881 50.8152 16.994V15.0488C50.8152 12.6546 51.1163 10.5242 51.7185 8.65731C52.3347 6.79047 53.21 5.21576 54.3443 3.9332C55.4787 2.65063 56.8301 1.67446 58.3986 1.00468C59.9671 0.334892 61.7107 0 63.6293 0C66.2901 0 68.4748 0.441772 70.1834 1.32532C71.8919 2.19461 73.1944 3.40592 74.0907 4.95925C75.0009 6.49833 75.5611 8.26542 75.7712 10.2605H69.6582C69.5042 9.20597 69.2101 8.2868 68.7759 7.50301C68.3418 6.71922 67.7186 6.10644 66.9063 5.66466C66.1081 5.22289 65.0718 5.002 63.7973 5.002C62.747 5.002 61.8087 5.22289 60.9824 5.66466C60.1702 6.09218 59.484 6.72634 58.9238 7.56713C58.3636 8.40793 57.9365 9.44823 57.6424 10.688C57.3483 11.9279 57.2012 13.3672 57.2012 15.006V16.994C57.2012 18.6186 57.3553 20.0579 57.6634 21.312C57.9715 22.5518 58.4266 23.5992 59.0288 24.4542C59.645 25.295 60.4013 25.9292 61.2975 26.3567C62.1938 26.7842 63.2372 26.998 64.4276 26.998C65.4219 26.998 66.2481 26.9125 66.9063 26.7415C67.5786 26.5705 68.1177 26.3638 68.5239 26.1216C68.944 25.8651 69.2661 25.6228 69.4902 25.3948V19.8798H63.7343V15.3053H75.7922Z" fill="white"/>
<path id="Vector_3" d="M47.0132 15.2838V16.7587C47.0132 19.1244 46.6981 21.2477 46.0679 23.1288C45.4377 25.0099 44.5484 26.6131 43.4 27.9384C42.2517 29.2495 40.8792 30.2542 39.2827 30.9525C37.7002 31.6508 35.9426 31.9999 34.01 31.9999C32.0914 31.9999 30.3338 31.6508 28.7373 30.9525C27.1548 30.2542 25.7824 29.2495 24.62 27.9384C23.4576 26.6131 22.5544 25.0099 21.9101 23.1288C21.2799 21.2477 20.9648 19.1244 20.9648 16.7587V15.2838C20.9648 12.9039 21.2799 10.7806 21.9101 8.91372C22.5403 7.03263 23.4296 5.42942 24.578 4.1041C25.7404 2.77879 27.1128 1.76698 28.6953 1.0687C30.2918 0.370413 32.0494 0.0212708 33.968 0.0212708C35.9006 0.0212708 37.6582 0.370413 39.2407 1.0687C40.8372 1.76698 42.2097 2.77879 43.358 4.1041C44.5204 5.42942 45.4167 7.03263 46.0469 8.91372C46.6911 10.7806 47.0132 12.9039 47.0132 15.2838ZM40.6482 16.7587V15.241C40.6482 13.588 40.5011 12.1344 40.207 10.8803C39.9129 9.62626 39.4788 8.5717 38.9046 7.71666C38.3304 6.86162 37.6302 6.22034 36.8039 5.79281C35.9777 5.35104 35.0324 5.13016 33.968 5.13016C32.9037 5.13016 31.9584 5.35104 31.1321 5.79281C30.3198 6.22034 29.6266 6.86162 29.0524 7.71666C28.4923 8.5717 28.0651 9.62626 27.771 10.8803C27.4769 12.1344 27.3299 13.588 27.3299 15.241V16.7587C27.3299 18.3976 27.4769 19.8512 27.771 21.1195C28.0651 22.3735 28.4993 23.4352 29.0734 24.3045C29.6476 25.1595 30.3479 25.808 31.1741 26.2497C32.0004 26.6915 32.9457 26.9124 34.01 26.9124C35.0744 26.9124 36.0197 26.6915 36.8459 26.2497C37.6722 25.808 38.3654 25.1595 38.9256 24.3045C39.4858 23.4352 39.9129 22.3735 40.207 21.1195C40.5011 19.8512 40.6482 18.3976 40.6482 16.7587Z" fill="white"/>
<path id="Vector_4" d="M19.6623 26.5705V31.5725H4.26437V26.5705H19.6623ZM6.30202 0.448883V31.5725H0V0.448883H6.30202Z" fill="white"/>
</g>
</svg>
